# xmcd
#
# Track frame offsets:
#	150
#	11602
#	25977
#	46202
#	66027
#	80552
#	95927
#	108755
#	125710
#	140435
#	161225
#	177645
#	191200
#	205387
#	223010
#	237080
#	251122
#
# Disc length: 3535 seconds
#
# Revision: 2
# Processed by: cddbd v1.5.2PL0 Copyright (c) Steve Scherf et al.
# Submitted via: audiograbber 1.81.03
#
DISCID=030dcd11
DTITLE=Various Country - New Country 3
DYEAR=1996
DGENRE=Country
TTITLE0=John Michael Montgomery - Sold
TTITLE1=Faith Hill - Let's Go To Vegas
TTITLE2=Dwight Yoakam - A Thousand Miles From Nowhere
TTITLE3=Clay Walker - This Woman And This Man
TTITLE4=Doug Supernaw - Not Enough Hour In The Night
TTITLE5=Neal McCoy - For A Change
TTITLE6=Mandy Barnette - Now That's All Right With Me
TTITLE7=Travis Tritt - Tell Me I Was Dreaming
TTITLE8=Chris Cummings - I Waited
TTITLE9=Little Texas - Amy's Back in Austin
TTITLE10=George Fox - What's Holding Me
TTITLE11=Daryle Stingletary - I Let Her Lie
TTITLE12=Bryan White - Look At Me Now
TTITLE13=Patricia Conroy - I Don't Wanna Be The One
TTITLE14=Tracy Lawrence - If The World Had A Front Porch
TTITLE15=The Johner Brothers - Ten More Miles
TTITLE16=Jeff Foxworthy w/ Little Texas And Scott Rouse - Party All Nitght
EXTD=
EXTT0=John Michael Montgomery
EXTT1=Faith Hill
EXTT2=Dwight Yoakam
EXTT3=Clay Walker
EXTT4=Doug Supernaw
EXTT5=Neal McCoy
EXTT6=Mandy Barnett
EXTT7=Travis Tritt
EXTT8=Chris Cummings
EXTT9=Little Texas
EXTT10=Goerge Fox
EXTT11=Daryl Singletary
EXTT12=Bryan White
EXTT13=Patricia Conroy
EXTT14=Tracy Lawrence
EXTT15=The Johner Brothers
EXTT16=Jeff Foxworthy w/Little Texas and Scott Rouse
PLAYORDER=
